<svg version="1.1" xmlns="http://www.w3.org/2000/svg" viewBox="-5.99999997654256 -10.211117958464614 11.99999995308512 20.42223591692923" fill="none" stroke="black" stroke-width="0.6%" vector-effect="non-scaling-stroke">
    <path d="M -5 7.1642 C -5 8.29 -4.08 9.21 -2.95308 9.21112 C -1.82 9.21 -0.91 8.29 -0.90617 7.1642 C -0.91 6.41 -1.32 5.75 -1.92963 5.39112 L -1.92963 -2.08744 L -0.0961 -2.08744 C 1.03 -2.09 1.95 -1.17 1.95081 -0.04053 L 1.95081 1.24473 C 1.33 1.6 0.91 2.26 0.90617 3.02989 C 0.91 4.16 1.82 5.08 2.95308 5.07681 C 4.08 5.08 5 4.16 5 3.02989 C 5 2.28 4.6 1.63 3.99773 1.26929 L 3.99773 -0.04053 C 4 -2.3 2.16 -4.13 -0.0961 -4.13436 L -1.92963 -4.13436 L -1.92963 -5.39116 C -1.32 -5.75 -0.91 -6.41 -0.90617 -7.1642 C -0.91 -8.29 -1.82 -9.21 -2.95308 -9.21112 C -4.08 -9.21 -5 -8.29 -5 -7.1642 C -5 -6.41 -4.59 -5.75 -3.97654 -5.39116 L -3.97654 5.39112 C -4.59 5.75 -5 6.41 -5 7.1642 Z" />
</svg>