<svg version="1.1" xmlns="http://www.w3.org/2000/svg" viewBox="-50.999992853493175 -50.999992853493175 101.99998570698634 101.99998570698634" fill="none" stroke="black" stroke-width="0.6%" vector-effect="non-scaling-stroke">
    <path d="M 39.18163 -31.06171 C 38.66 -31.71 37.92 -32.15 37.10134 -32.28154 C 27.48 -33.84 20.67 -31.83 16.85491 -26.33124 C 11.56 -18.69 13.71 -5.46 17.90738 7.19478 L -12.14396 -35.49234 C -12.79 -36.41 -13.82 -36.91 -14.87421 -36.91035 L -16.24396 -36.61464 C -17.7 -35.96 -18.49 -34.36 -18.1189 -32.79905 L -5.6628 19.51124 L -35.48516 -24.83622 C -27.36 -36.44 -14.24 -43.33 -0.00103 -43.32682 C 8.96 -43.33 17.56 -40.61 24.86805 -35.4831 C 26.38 -34.42 28.46 -34.79 29.51637 -36.29736 C 30.58 -37.81 30.21 -39.89 28.70315 -40.94465 C 20.27 -46.87 10.34 -50 -0.00103 -49.99999 C -15.58 -50 -29.99 -42.86 -39.43525 -30.70746 L -39.95892 -31.48783 C -40.99 -33.02 -43.06 -33.42 -44.58979 -32.39449 C -46.12 -31.37 -46.53 -29.29 -45.49645 -27.76363 L -0.91488 38.52962 C -0.02 39.87 1.71 40.37 3.19335 39.72481 C 4.67 39.08 5.47 37.46 5.10011 35.89485 L -7.6014 -17.44737 L 27.96693 33.07731 C 20.15 39.7 10.33 43.33 0 43.3258 C -23.89 43.33 -43.33 23.89 -43.3258 0 C -43.33 -4.73 -42.57 -9.37 -41.07813 -13.81353 C -40.49 -15.56 -41.43 -17.45 -43.17794 -18.03881 L -44.2417 -18.21337 C -45.64 -18.21 -46.94 -17.33 -47.40424 -15.93901 C -49.13 -10.82 -50 -5.45 -49.99999 0 C -50 27.57 -27.57 50 0 49.99999 C 11.72 50 22.88 45.95 31.82154 38.55221 L 32.8011 39.94352 C 33.83 41.4 35.82 41.8 37.32005 40.83889 C 38.82 39.88 39.31 37.91 38.42694 36.36718 C 28.48 18.97 15.32 -12.4 22.34315 -22.53106 C 24.42 -25.53 28.6 -26.66 34.751 -25.87842 C 40.37 -18.37 43.33 -9.45 43.3258 0.00103 C 43.33 8.33 40.95 16.43 36.46678 23.40384 C 35.47 24.95 35.92 27.02 37.46893 28.01519 C 39.02 29.01 41.08 28.56 42.08029 27.01304 C 47.26 18.96 50 9.62 49.99999 0.00103 C 50 -11.4 46.26 -22.15 39.18163 -31.06171 C 38.66 -31.71 37.92 -32.15 37.10134 -32.28154 C 27.48 -33.84 20.67 -31.83 16.85491 -26.33124 C 11.56 -18.69 13.71 -5.46 17.90738 7.19478" />
    <path d="M -12.14396 -35.49234 C -12.79 -36.41 -13.82 -36.91 -14.87421 -36.91035" />
    <path d="M -16.24396 -36.61464 C -17.7 -35.96 -18.49 -34.36 -18.1189 -32.79905" />
    <path d="M -35.48516 -24.83622 C -27.36 -36.44 -14.24 -43.33 -0.00103 -43.32682 C 8.96 -43.33 17.56 -40.61 24.86805 -35.4831 C 26.38 -34.42 28.46 -34.79 29.51637 -36.29736 C 30.58 -37.81 30.21 -39.89 28.70315 -40.94465 C 20.27 -46.87 10.34 -50 -0.00103 -49.99999 C -15.58 -50 -29.99 -42.86 -39.43525 -30.70746" />
    <path d="M -39.95892 -31.48783 C -40.99 -33.02 -43.06 -33.42 -44.58979 -32.39449 C -46.12 -31.37 -46.53 -29.29 -45.49645 -27.76363" />
    <path d="M -0.91488 38.52962 C -0.02 39.87 1.71 40.37 3.19335 39.72481 C 4.67 39.08 5.47 37.46 5.10011 35.89485" />
    <path d="M 27.96693 33.07731 C 20.15 39.7 10.33 43.33 0 43.3258 C -23.89 43.33 -43.33 23.89 -43.3258 0 C -43.33 -4.73 -42.57 -9.37 -41.07813 -13.81353 C -40.49 -15.56 -41.43 -17.45 -43.17794 -18.03881" />
    <path d="M -44.2417 -18.21337 C -45.64 -18.21 -46.94 -17.33 -47.40424 -15.93901 C -49.13 -10.82 -50 -5.45 -49.99999 0 C -50 27.57 -27.57 50 0 49.99999 C 11.72 50 22.88 45.95 31.82154 38.55221" />
    <path d="M 32.8011 39.94352 C 33.83 41.4 35.82 41.8 37.32005 40.83889 C 38.82 39.88 39.31 37.91 38.42694 36.36718 C 28.48 18.97 15.32 -12.4 22.34315 -22.53106 C 24.42 -25.53 28.6 -26.66 34.751 -25.87842 C 40.37 -18.37 43.33 -9.45 43.3258 0.00103 C 43.33 8.33 40.95 16.43 36.46678 23.40384 C 35.47 24.95 35.92 27.02 37.46893 28.01519 C 39.02 29.01 41.08 28.56 42.08029 27.01304 C 47.26 18.96 50 9.62 49.99999 0.00103 C 50 -11.4 46.26 -22.15 39.18163 -31.06171" />
</svg>