<svg version="1.1" xmlns="http://www.w3.org/2000/svg" viewBox="-6.0000009814186255 -2.3529184528947154 12.000001962837308 4.705836905789445" fill="none" stroke="black" stroke-width="0.6%" vector-effect="non-scaling-stroke">
    <path d="M 0.75987 0.01019 C 0.76 0.01 0.78 0.33 0.2751 0.33144 C -0.18 0.33 -0.16 0.01 -0.1634 0.01463 L 0.12301 -0.00813 C 0.13 0.07 0.21 0.09 0.24172 0.09702 C 0.25 0.1 0.27 0.1 0.27989 0.1002 C 0.39 0.1 0.44 0.05 0.45002 -0.01922 C 0.45 -0.05 0.45 -0.08 0.45396 -0.11023 C 0.45 -0.11 -0.2 -0.04 -0.19897 -0.42729 C -0.2 -0.43 -0.22 -0.74 0.16842 -0.74412 C 0.17 -0.74 0.37 -0.75 0.47252 -0.60067 C 0.49 -0.68 0.52 -0.72 0.52333 -0.72344 L 0.82551 -0.72344 C 0.77 -0.65 0.76 -0.41 0.76001 -0.41173 L 0.75987 0.01019 Z" />
    <path d="M 0.45398 -0.4444 C 0.4 -0.52 0.12 -0.56 0.12483 -0.41406 C 0.12 -0.27 0.31 -0.28 0.31289 -0.28258 L 0.45398 -0.28258 L 0.45398 -0.4444 Z" />
    <path d="M 1.55702 -0.11107 L 1.55784 -0.11033 C 1.56 -0.11 1.55 -0.11 1.5519 -0.10955 C 1.51 -0.1 1.48 -0.09 1.45613 -0.08684 L 1.45613 -0.08682 C 1.46 -0.09 1.46 -0.09 1.45576 -0.08678 C 1.43 -0.08 1.42 -0.08 1.41651 -0.08065 L 1.41644 -0.08076 C 1.21 -0.04 1.22 0.04 1.2218 0.03886 C 1.22 0.04 1.21 0.13 1.37194 0.13184 C 1.54 0.13 1.55 -0.01 1.55414 -0.00601 L 1.86962 0.0171 C 1.87 0.02 1.87 0.33 1.37708 0.33144 C 0.88 0.33 0.87 0.02 0.87422 0.02147 C 0.87 -0.21 1.19 -0.29 1.30025 -0.305 C 1.3 -0.31 1.3 -0.31 1.30086 -0.30512 C 1.53 -0.35 1.52 -0.43 1.51817 -0.42809 C 1.52 -0.43 1.53 -0.53 1.35843 -0.52857 C 1.19 -0.53 1.17 -0.4 1.17064 -0.3981 L 0.84588 -0.41385 C 0.85 -0.41 0.85 -0.75 1.35252 -0.74893 C 1.87 -0.75 1.87 -0.42 1.87101 -0.41822 C 1.87 -0.24 1.69 -0.15 1.55702 -0.11107 Z" />
    <path d="M 2.9248 0.33143 C 2.56 0.33 2.39 0.09 2.39345 -0.20636 C 2.39 -0.5 2.56 -0.74 2.9248 -0.74414 C 3.29 -0.74 3.46 -0.5 3.45786 -0.20636 C 3.46 0.09 3.29 0.33 2.9248 0.33143 Z" />
    <path d="M 2.9255 -0.51042 C 2.89 -0.51 2.74 -0.5 2.73986 -0.19708 C 2.74 0.1 2.89 0.12 2.9255 0.11625 C 2.96 0.12 3.11 0.1 3.11115 -0.19708 C 3.11 -0.5 2.96 -0.51 2.9255 -0.51042 Z" />
    <path d="M 3.94302 -0.35441 L 3.7919 0.30969 L 3.45667 0.30969 L 3.70572 -0.72242 L 4.10278 -0.72242 L 4.22822 -0.11772 L 4.22834 -0.11772 L 4.22845 -0.11772 L 4.35389 -0.72242 L 4.75095 -0.72242 L 5 0.30969 L 4.66899 0.30969 L 4.51092 -0.35441 L 4.35978 0.30969 L 4.22834 0.30969 L 4.10109 0.30969 L 3.94302 -0.35441 Z" />
    <path d="M -3.64709 1.35292 C -4.39 1.35 -5 0.75 -5 -0.00001 C -5 -0.75 -4.39 -1.35 -3.64709 -1.35292 C -2.9 -1.35 -2.29 -0.75 -2.29418 -0.00001 C -2.29 0.75 -2.9 1.35 -3.64709 1.35292 Z" />
    <path d="M -2.93803 -0.56734 C -2.95 -0.58 -2.96 -0.59 -2.97567 -0.58941 C -3.15 -0.62 -3.27 -0.58 -3.34206 -0.48175 C -3.44 -0.34 -3.4 -0.1 -3.32301 0.12497 L -3.86683 -0.64753 C -3.88 -0.66 -3.9 -0.67 -3.91624 -0.67317 C -3.92 -0.67 -3.93 -0.67 -3.94103 -0.66782 C -3.97 -0.66 -3.98 -0.63 -3.97496 -0.59877 L -3.74955 0.34785 L -4.28923 -0.45466 C -4.14 -0.66 -3.9 -0.79 -3.64709 -0.78927 C -3.48 -0.79 -3.33 -0.74 -3.19705 -0.64735 C -3.17 -0.63 -3.13 -0.63 -3.11293 -0.66206 C -3.09 -0.69 -3.1 -0.73 -3.12765 -0.74618 C -3.28 -0.85 -3.46 -0.91 -3.64709 -0.91005 C -3.93 -0.91 -4.19 -0.78 -4.36071 -0.56094 L -4.37019 -0.57505 C -4.39 -0.6 -4.43 -0.61 -4.45399 -0.59145 C -4.48 -0.57 -4.49 -0.54 -4.47039 -0.50765 L -3.66363 0.69202 C -3.65 0.72 -3.62 0.73 -3.58929 0.71364 C -3.56 0.7 -3.55 0.67 -3.55478 0.64434 L -3.78463 -0.32096 L -3.14097 0.59335 C -3.28 0.71 -3.46 0.78 -3.64707 0.77881 C -4.08 0.78 -4.43 0.43 -4.43111 -0.00523 C -4.43 -0.09 -4.42 -0.17 -4.39044 -0.25521 C -4.38 -0.29 -4.4 -0.32 -4.42844 -0.33169 C -4.43 -0.33 -4.44 -0.33 -4.44769 -0.33485 C -4.47 -0.33 -4.5 -0.32 -4.50492 -0.29367 C -4.54 -0.2 -4.55 -0.1 -4.55189 -0.00523 C -4.55 0.49 -4.15 0.9 -3.64707 0.89959 C -3.43 0.9 -3.23 0.83 -3.07122 0.69242 L -3.05349 0.7176 C -3.03 0.74 -3 0.75 -2.97172 0.73381 C -2.94 0.72 -2.94 0.68 -2.95168 0.65288 C -3.13 0.34 -3.37 -0.23 -3.24274 -0.41296 C -3.21 -0.47 -3.13 -0.49 -3.01821 -0.47354 C -2.92 -0.34 -2.86 -0.18 -2.86303 -0.00521 C -2.86 0.15 -2.91 0.29 -2.98716 0.41829 C -3.01 0.45 -3 0.48 -2.96902 0.50174 C -2.94 0.52 -2.9 0.51 -2.88557 0.48361 C -2.79 0.34 -2.74 0.17 -2.74225 -0.00521 C -2.74 -0.21 -2.81 -0.41 -2.93803 -0.56734 Z" />
    <path d="M -1.84661 0.70746 L -1.84661 -0.72346 L -1.54396 -0.72331 L -1.54396 0.20221 L -1.19547 -0.72331 L -1.19391 -0.72331 L -1.19391 -0.7236 L -1.0698 -0.7236 L -0.94386 -0.7236 L -0.59538 0.20191 L -0.59538 -0.7236 L -0.29267 -0.72346 L -0.29267 0.70748 L -0.59538 0.70735 L -0.69308 0.70735 L -1.06746 -0.29042 L -1.07177 -0.29042 L -1.44628 0.70762 L -1.54396 0.70762 L -1.84661 0.70746 Z" />
    <path d="M 2.13026 0.70768 L 2.29043 0.70768 L 2.29043 -0.72325 L 2.13026 -0.72325 L 1.97009 -0.72325 L 1.97009 0.70768 L 2.13026 0.70768 Z" />
</svg>