<svg version="1.1" xmlns="http://www.w3.org/2000/svg" viewBox="-6.000000185349318 -6.000000185349318 12.000000370698636 12.000000370698636" fill="none" stroke="black" stroke-width="0.6%" vector-effect="non-scaling-stroke">
    <path d="M 3.91816 -3.10617 C 3.87 -3.17 3.79 -3.21 3.71013 -3.22815 C 2.75 -3.38 2.07 -3.18 1.68549 -2.63312 C 1.16 -1.87 1.37 -0.55 1.79074 0.71948 L -1.2144 -3.54923 C -1.28 -3.64 -1.38 -3.69 -1.48742 -3.69104 L -1.6244 -3.66146 C -1.77 -3.6 -1.85 -3.44 -1.81189 -3.27991 L -0.56628 1.95112 L -3.54852 -2.48362 C -2.74 -3.64 -1.42 -4.33 -0.0001 -4.33268 C 0.9 -4.33 1.76 -4.06 2.48681 -3.54831 C 2.64 -3.44 2.85 -3.48 2.95164 -3.62974 C 3.06 -3.78 3.02 -3.99 2.87031 -4.09446 C 2.03 -4.69 1.03 -5 -0.0001 -5 C -1.56 -5 -3 -4.29 -3.94353 -3.07075 L -3.99589 -3.14878 C -4.1 -3.3 -4.31 -3.34 -4.45898 -3.23945 C -4.61 -3.14 -4.65 -2.93 -4.54965 -2.77636 L -0.09149 3.85296 C 0 3.99 0.17 4.04 0.31933 3.97248 C 0.47 3.91 0.55 3.75 0.51001 3.58948 L -0.76014 -1.74474 L 2.79669 3.30773 C 2.02 3.97 1.03 4.33 0 4.33258 C -2.39 4.33 -4.33 2.39 -4.33258 0 C -4.33 -0.47 -4.26 -0.94 -4.10781 -1.38135 C -4.05 -1.56 -4.14 -1.75 -4.31779 -1.80388 L -4.42417 -1.82134 C -4.56 -1.82 -4.69 -1.73 -4.74042 -1.5939 C -4.91 -1.08 -5 -0.55 -5 0 C -5 2.76 -2.76 5 0 5 C 1.17 5 2.29 4.6 3.18215 3.85522 L 3.28011 3.99435 C 3.38 4.14 3.58 4.18 3.732 4.08389 C 3.88 3.99 3.93 3.79 3.84269 3.63672 C 2.85 1.9 1.53 -1.24 2.23432 -2.25311 C 2.44 -2.55 2.86 -2.67 3.4751 -2.58784 C 4.04 -1.84 4.33 -0.94 4.33258 0.0001 C 4.33 0.83 4.1 1.64 3.64668 2.34038 C 3.55 2.5 3.59 2.7 3.74689 2.80152 C 3.9 2.9 4.11 2.86 4.20803 2.7013 C 4.73 1.9 5 0.96 5 0.0001 C 5 -1.14 4.63 -2.21 3.91816 -3.10617 Z" />
</svg>