<svg version="1.1" xmlns="http://www.w3.org/2000/svg" viewBox="-6.4499188469808475 -2.7973788899112817 12.984618333529042 5.519808619980793" fill="none" stroke="black" stroke-width="0.6%" vector-effect="non-scaling-stroke">
    <path d="M 0.57417 1.72103 C 0.49 1.72 0.41 1.72 0.34081 1.71206 C -0.45 1.63 -0.79 1.54 -0.47441 1.58862" />
    <path d="M 0.57417 -0.25714 C 0.49 -0.26 0.41 -0.26 0.34081 -0.2661 C -0.45 -0.35 -0.79 -0.44 -0.69342 -0.50142 C -0.45 -0.35 -0.79 -0.44 -0.67008 -0.53908 C -0.5 -0.67 0.58 -0.79 1.77499 -0.87746 L -3.3684 -0.74579 C -3.48 -0.74 -3.59 -0.75 -3.66172 -0.75946 L -3.73767 -0.77682 C -3.79 -0.8 -3.74 -0.82 -3.75924 -0.7942 C -3.79 -0.8 -3.74 -0.82 -3.60044 -0.83611 L 0.97923 -1.2514 L -4.26537 -1.10005 C -4.51 -0.89 -4.07 -0.69 -4.33223 -0.98783 C -4.51 -0.89 -4.07 -0.69 -3.06374 -0.53762 C -2.43 -0.44 -1.63 -0.38 -0.7506 -0.36022 C -0.57 -0.36 -0.45 -0.33 -0.47441 -0.31185 C -0.57 -0.36 -0.45 -0.33 -0.47949 -0.3033 C -0.51 -0.28 -0.68 -0.26 -0.8656 -0.26334 C -1.88 -0.29 -2.8 -0.36 -3.53561 -0.46809 C -4.64 -0.63 -5.15 -0.86 -4.99902 -0.98763 C -4.64 -0.63 -5.15 -0.86 -4.95984 -1.08003 L -5.05205 -1.07735 C -5.23 -1.07 -5.41 -1.09 -5.44361 -1.11616 C -5.48 -1.14 -5.36 -1.17 -5.44992 -1.12568 C -5.48 -1.14 -5.36 -1.17 -5.18027 -1.17386 L 2.65976 -1.4001 C 2.82 -1.4 2.98 -1.39 3.03477 -1.36975 C 3.09 -1.35 3.04 -1.32 3.05767 -1.35186 C 3.09 -1.35 3.04 -1.32 2.89878 -1.30997 L -1.77122 -0.88649 L 4.31648 -1.04233 C 4.23 -1.19 3.79 -1.33 3.0636 -1.44054 C 1.37 -1.69 -1.37 -1.69 -3.0636 -1.44054 C -3.4 -1.39 -3.67 -1.33 -3.88143 -1.27318 C -3.96 -1.25 -4.16 -1.24 -4.32868 -1.25104 L -4.41624 -1.2603 C -4.51 -1.27 -4.54 -1.3 -4.51401 -1.29512 C -4.51 -1.27 -4.54 -1.3 -4.47904 -1.31695 C -4.24 -1.39 -3.92 -1.45 -3.53553 -1.51009 C -1.59 -1.8 1.59 -1.8 3.53553 -1.51009 C 4.36 -1.39 4.87 -1.23 4.97618 -1.05922 L 5.14382 -1.06351 C 5.32 -1.07 5.49 -1.05 5.52667 -1.02575 C 5.57 -1 5.46 -0.97 5.5347 -1.01503 C 5.57 -1 5.46 -0.97 5.28874 -0.96762 C 3.36 -0.89 0.21 -0.7 -0.01329 -0.52149 C -0.08 -0.47 0.14 -0.41 -0.02466 -0.50291 C -0.08 -0.47 0.14 -0.41 0.62739 -0.35732 C 1.56 -0.38 2.4 -0.44 3.06367 -0.53763 C 3.65 -0.62 4.06 -0.73 4.23349 -0.85296 C 4.27 -0.88 4.45 -0.9 4.63043 -0.89057 C 4.81 -0.88 4.92 -0.86 4.89334 -0.84258 C 4.81 -0.88 4.92 -0.86 4.88564 -0.83208 C 4.68 -0.69 4.22 -0.57 3.53561 -0.46809 C 2.73 -0.35 1.71 -0.28 0.57417 -0.25714 Z" />
    <path d="M -3.66172 -0.64749 L -3.66172 -0.75946" />
    <path d="M -3.73767 -0.66579 L -3.73767 -0.77682" />
    <path d="M -4.26537 -0.87612 L -4.26537 -1.10005" />
    <path d="M -0.47441 1.66632 C -0.57 1.62 -0.45 1.65 -0.47949 1.67487 C -0.51 1.7 -0.68 1.72 -0.8656 1.71482 C -1.88 1.69 -2.8 1.62 -3.53561 1.51008 C -4.64 1.35 -5.15 1.12 -4.99902 0.99054 L -4.99902 -0.98763" />
    <path d="M -4.99902 0.89927 L -5.05205 0.90081 L -5.05205 -1.07735" />
    <path d="M -5.05205 0.90081 C -5.23 0.91 -5.41 0.89 -5.44361 0.86201 L -5.44361 -1.11616" />
    <path d="M -5.44361 0.86201 C -5.48 0.84 -5.36 0.81 -5.44992 0.85249 L -5.44992 -1.12568" />
    <path d="M -4.32868 -1.19844 L -4.32868 -1.25104" />
    <path d="M -4.41624 -1.19591 L -4.41624 -1.2603" />
    <path d="M 5.5347 0.96313 C 5.57 0.98 5.46 1 5.28874 1.01055 L 5.28874 -0.96762" />
    <path d="M 5.28874 1.01055 C 3.36 1.09 0.21 1.28 4.89334 1.02726" />
    <path d="M 4.89334 1.13558 C 4.81 1.09 4.92 1.12 4.88564 1.14609 L 4.88564 -0.83208" />
    <path d="M 4.88564 1.14609 C 4.68 1.28 4.22 1.41 3.53561 1.51008 L 3.53561 -0.46809" />
    <path d="M 3.53561 1.51008 C 2.73 1.63 1.71 1.7 0.57417 1.72103 L 0.57417 -0.25714" />
    <path d="M 0.34081 1.71206 L 0.34081 -0.2661" />
    <path d="M -3.3684 -0.58742 L -3.3684 -0.74579" />
    <path d="M -0.47949 1.67487 L -0.47949 -0.3033" />
    <path d="M -0.8656 1.71482 L -0.8656 -0.26334" />
    <path d="M -3.53561 1.51008 L -3.53561 -0.46809" />
    <path d="M 2.89878 -1.00604 L 2.89878 -1.30997" />
    <path d="M 3.0636 -1.01026 L 3.0636 -1.44054" />
    <path d="M -3.0636 -1.23494 L -3.0636 -1.44054" />
    <path d="M -3.88143 -1.21134 L -3.88143 -1.27318" />
    <path d="M -0.01329 -0.48415 L -0.01329 -0.52149" />
    <path d="M -0.69342 -0.35796 L -0.69342 -0.50142" />
    <path d="M -3.75924 -0.67125 L -3.75924 -0.7942" />
    <path d="M -0.47441 1.66632 L -0.47441 -0.31185" />
    <path d="M 3.05767 -1.01011 L 3.05767 -1.35186" />
    <path d="M -4.51401 -1.19309 L -4.51401 -1.29512" />
    <path d="M 5.5347 0.96313 L 5.5347 -1.01503" />
    <path d="M 4.89334 1.13558 L 4.89334 -0.84258" />
</svg>